<?xml version="1.0" encoding="iso-8859-1"?>
<!-- Uploaded to: SVG Repo, www.svgrepo.com, Generator: SVG Repo Mixer Tools -->
<svg height="800px" width="800px" version="1.1" id="Layer_1" xmlns="http://www.w3.org/2000/svg" xmlns:xlink="http://www.w3.org/1999/xlink" 
	 viewBox="0 0 512 512" xml:space="preserve">
<path style="fill:#EFF2FA;" d="M379.586,512H132.414c-14.626,0-26.483-11.857-26.483-26.483V26.483
	C105.931,11.857,117.788,0,132.414,0h247.172c14.626,0,26.483,11.857,26.483,26.483v459.034
	C406.069,500.143,394.212,512,379.586,512z"/>
<g>
	<path style="fill:#D71E00;" d="M194.207,241.075c0-18.824,15.171-34.083,33.887-34.083c9.276,0,17.674,3.754,23.79,9.83
		c2.268,2.252,5.964,2.252,8.232,0c6.116-6.076,14.515-9.83,23.79-9.83c18.716,0,33.887,15.26,33.887,34.083l0,0
		c0,35.201-45.329,67.224-58.339,75.691c-2.103,1.368-4.803,1.368-6.906,0C239.535,308.299,194.207,276.277,194.207,241.075"/>
	<path style="fill:#D71E00;" d="M132.414,45.959c0-10.756,8.67-19.476,19.363-19.476c5.301,0,10.1,2.145,13.594,5.617
		c1.295,1.288,3.409,1.288,4.704,0c3.495-3.471,8.295-5.617,13.594-5.617c10.695,0,19.364,8.719,19.364,19.476l0,0
		c0,20.115-25.902,38.414-33.337,43.252c-1.202,0.782-2.744,0.782-3.947,0C158.316,84.373,132.414,66.074,132.414,45.959"/>
	<path style="fill:#D71E00;" d="M379.586,466.041c0,10.756-8.67,19.476-19.363,19.476c-5.301,0-10.1-2.145-13.595-5.617
		c-1.295-1.288-3.409-1.288-4.704,0c-3.495,3.471-8.294,5.617-13.595,5.617c-10.695,0-19.363-8.719-19.363-19.476l0,0
		c0-20.115,25.902-38.414,33.337-43.252c1.202-0.782,2.744-0.782,3.947,0C353.684,427.627,379.586,445.926,379.586,466.041"/>
</g>
</svg>