<svg xmlns="http://www.w3.org/2000/svg" viewBox="0 0 496.158 496.158" xml:space="preserve"><path style="fill:#f4f4f4" d="m284.34 315.69-71.938-191.313c-3.137-8.341-12.44-12.562-20.784-9.424L65.755 162.28c-8.341 3.137-12.561 12.442-9.424 20.783l71.938 191.314c3.137 8.341 12.442 12.561 20.783 9.424l125.864-47.328c8.344-3.138 12.561-12.441 9.424-20.783"/>
    <path style="fill:#D71E00"
          d="m208.806 234.911.057-.067-.144.054c-27.561-3.325-56.714-34.639-56.714-34.639s-2.597 42.019-20.097 63.521l-.129.049.08.016-.05.063.129-.049c27.333 4.647 56.973 34.544 56.973 34.544s1.297-42.765 19.839-63.427l.142-.054zM92.877 184.44q-1.063.305-1.822.002-1.005-.401-3.158-2.591l-15.09-15.438-.316.118-1.3 21.032q-.177 3.011-.65 4.128-.471 1.117-1.617 1.757l.231.615 7.503-2.821-.232-.615q-1.813.53-2.363.434-.934-.163-1.291-1.11-.269-.715-.216-1.989l.124-2.551 7.968-2.997 2.255 2.36q.878.923.967 1.062.219.278.332.577.188.499-.079.902-.395.567-1.709 1.061l-.449.169.231.616 10.912-4.104zm-20.079-.482.539-9.069 6.281 6.506zm23.52 19.185.012-.014-.029.012c-5.766-.696-11.865-7.247-11.865-7.247s-.543 8.789-4.204 13.288l-.027.011.017.003-.011.014.027-.011c5.718.971 11.917 7.227 11.917 7.227s.272-8.946 4.151-13.269l.03-.012zm174.315 99.59-7.502 2.82.232.616q1.813-.53 2.363-.434.933.163 1.29 1.109.268.716.216 1.989l-.123 2.552-7.968 2.996-2.255-2.36q-.88-.925-.969-1.06a2.2 2.2 0 0 1-.331-.577q-.188-.5.079-.904.395-.565 1.709-1.06l.449-.169-.232-.616-10.912 4.104.232.616q1.062-.305 1.822-.002 1.005.4 3.158 2.591l15.09 15.439.316-.119 1.299-21.033q.178-3.009.65-4.128.472-1.116 1.618-1.756zm-4.182 19.173-6.282-6.506 6.82-2.563zm-5.809-33.674.011-.013-.028.01c-5.718-.971-11.917-7.227-11.917-7.227s-.272 8.946-4.15 13.269l-.029.011a.03.03 0 0 0 .017.003l-.011.015.03-.011c5.765.695 11.865 7.246 11.865 7.246s.542-8.791 4.204-13.289l.027-.01z"/>
    <path style="fill:#fff"
          d="m318.066 325.154-29.605-202.236c-1.291-8.817-9.483-14.92-18.303-13.629l-133.05 19.478c-8.817 1.291-14.919 9.486-13.628 18.304l29.606 202.236c1.291 8.817 9.486 14.919 18.303 13.628l133.05-19.477c8.819-1.293 14.918-9.487 13.627-18.304"/>
    <path style="fill:#000000"
          d="M259.243 255.637c17.188-17.528-1.815-34.268-7.14-39.778-5.325-5.512-38.094-29.702-38.629-30.142l-.004-.024-.01.014-.013-.011.004.024c-.389.574-24.352 33.011-28.37 39.95-4.021 6.939-16.93 28.29 4.561 40.156 0 0 23.349 10.189 31.212-14.282 2.396 22.991-11.365 37.706-11.365 37.706l37.392-5.473s-17.467-10.195-21.719-32.998c14.557 21.38 34.081 4.858 34.081 4.858m-100.346-99.45q-1.104.072-1.781-.386-.897-.605-2.535-3.203l-11.46-18.295-.334.049-5.743 20.275q-.814 2.902-1.513 3.895-.7.99-1.954 1.372l.095.651 7.931-1.161-.095-.65q-1.885.131-2.401-.08-.879-.357-1.025-1.358-.11-.757.211-1.989l.663-2.468 8.423-1.233 1.701 2.787q.663 1.09.721 1.241.154.318.202.635.077.529-.27.866-.505.47-1.895.673l-.475.069.095.649 11.536-1.688zm-19.518-4.74 2.456-8.747 4.754 7.692zm18.263 27.998c3.596-3.666-.379-7.167-1.493-8.321s-7.968-6.214-8.082-6.305l-.001-.006v.003l-.003-.002.001.006c-.082.119-5.094 6.905-5.935 8.356-.841 1.452-3.541 5.918.955 8.4 0 0 4.884 2.132 6.529-2.988.501 4.81-2.377 7.889-2.377 7.889l7.822-1.146s-3.654-2.132-4.543-6.902c3.043 4.473 7.127 1.016 7.127 1.016"/>
    <path style="fill:#D71E00"
          d="m307.428 309.577-7.93 1.161.095.651q1.883-.133 2.4.079.878.356 1.024 1.357.11.758-.211 1.989l-.663 2.469-8.423 1.232-1.701-2.786q-.663-1.09-.721-1.241a2.2 2.2 0 0 1-.2-.635q-.079-.529.269-.866.507-.47 1.895-.672l.475-.07-.095-.649-11.536 1.688.095.651q1.103-.073 1.78.386.897.605 2.535 3.204l11.461 18.295.334-.05 5.744-20.274q.813-2.904 1.513-3.896c.7-.992 1.117-1.118 1.954-1.372zm-8.164 17.845-4.754-7.692 7.209-1.056z"/>
    <path style="fill:#000000"
          d="M298.579 288.238s-4.884-2.133-6.529 2.987c-.501-4.808 2.378-7.887 2.378-7.887l-7.823 1.145s3.655 2.132 4.544 6.902c-3.045-4.473-7.129-1.017-7.129-1.017-3.597 3.668.379 7.168 1.493 8.321 1.114 1.154 7.967 6.213 8.081 6.306l.001.005.001-.002.002.002-.001-.006c.082-.12 5.094-6.905 5.936-8.357.841-1.45 3.542-5.917-.954-8.399"/>
    <path style="fill:#f4f4f4"
          d="m355.613 127.566-133.57-15.516c-8.852-1.029-16.861 5.313-17.89 14.167l-23.584 203.025c-1.028 8.853 5.315 16.861 14.166 17.891l133.57 15.516c8.854 1.028 16.862-5.315 17.89-14.166l23.585-203.027c1.028-8.852-5.313-16.862-14.167-17.89"/>
    <path style="fill:#D71E00"
          d="M234.397 143.333q-.711-.819-1.623-3.749l-6.351-20.634-.337-.039-10.78 18.105q-1.536 2.595-2.468 3.373-.93.778-2.242.822l-.076.653 7.962.924.075-.652q-1.855-.36-2.299-.696-.756-.572-.64-1.578.088-.758.717-1.866l1.278-2.213 8.456.981.924 3.131q.359 1.222.376 1.386.068.347.03.666-.061.528-.482.767-.61.323-2.005.162l-.476-.057-.076.654 11.581 1.345.076-.653q-1.083-.215-1.62-.832m-16.012-8.785 4.63-7.817 2.608 8.658zm12.404 18.568s-4.36-4.885-8.282 2.413c-2.144-8.003-7.507-4.246-7.507-4.246-6.983 4.663 5.301 17.861 5.847 18.441l-.002.02.012-.008.011.011.002-.021c.665-.439 15.648-10.47 9.919-16.61"/>
    <path d="m331.975 329.764-.076.652q1.853.359 2.298.697.756.57.64 1.575-.089.76-.717 1.868l-1.278 2.212-8.456-.981-.924-3.131q-.36-1.223-.376-1.386a2.2 2.2 0 0 1-.03-.665q.062-.53.483-.767.61-.324 2.005-.161l.476.056.076-.653-11.581-1.345-.076.652q1.084.216 1.621.832.71.817 1.623 3.749l6.352 20.633.335.04 10.781-18.105q1.536-2.596 2.468-3.373.93-.779 2.242-.823l.076-.65zm-4.532 16.058-2.608-8.659 7.238.841z"/>
    <path style="fill:#D71E00"
          d="m330.025 302.265.002-.019-.013.008-.011-.011-.002.02c-.664.439-15.646 10.47-9.919 16.611 0 0 4.361 4.884 8.282-2.413 2.146 8.002 7.508 4.246 7.508 4.246 6.982-4.664-5.302-17.861-5.847-18.442m-12.576-99.563s-20.84-23.354-39.589 11.531c-10.252-38.254-35.891-20.299-35.891-20.299-33.38 22.293 25.344 85.385 27.952 88.158l-.011.093.061-.04.051.053.011-.093c3.172-2.102 74.796-50.051 47.416-79.403"/>
    <path style="fill:#fff"
          d="m432.918 180.916-115.845-68.275c-7.677-4.524-17.569-1.969-22.095 5.709L191.2 294.435c-4.525 7.676-1.969 17.569 5.708 22.094l115.846 68.275c7.679 4.525 17.569 1.97 22.095-5.708l103.777-176.085c4.525-7.678 1.971-17.568-5.708-22.095"/>
    <path style="fill:#000000"
          d="M315.701 146.248q-.319-1.033.034-4.086l2.548-21.437-.292-.172-17.188 12.188q-2.455 1.751-3.622 2.085c-1.167.334-1.571.171-2.384-.156l-.333.566 6.905 4.069.334-.566q-1.551-1.079-1.821-1.567-.46-.829.054-1.701.388-.657 1.413-1.417l2.063-1.506 7.334 4.322-.423 3.237q-.167 1.263-.218 1.419-.08.346-.241.621-.27.46-.753.505-.688.05-1.898-.665l-.413-.243-.333.566 10.044 5.919.333-.565q-.902-.635-1.143-1.416m-4.807-10.817-6.277-3.699 7.398-5.272zm-7.759 21.572a4.42 4.42 0 0 0-3.241-.497l-.009-.582a4.42 4.42 0 0 0 3.815-2.179 4.433 4.433 0 0 0-1.569-6.07 4.433 4.433 0 0 0-6.071 1.568 4.43 4.43 0 0 0-.047 4.413l-.467.249a4.42 4.42 0 0 0-1.991-2.549 4.433 4.433 0 1 0 .766 7.066l.718.423c-2.615 4.252-6.933 4.867-6.933 4.867l6.811 4.015s-1.553-4.075.899-8.422l.766.45a4.433 4.433 0 0 0 8.121 3.32 4.434 4.434 0 0 0-1.568-6.072m26.291 199.219-.333.565q1.55 1.081 1.819 1.568.46.83-.055 1.702-.387.659-1.412 1.415l-2.063 1.507-7.334-4.321.422-3.237q.167-1.264.217-1.419.08-.345.243-.621.27-.459.752-.505.688-.049 1.899.663l.413.244.334-.565-10.044-5.92-.333.565q.904.636 1.145 1.419.319 1.034-.035 4.083l-2.549 21.439.292.172 17.189-12.19q2.454-1.752 3.622-2.084 1.166-.335 2.383.155l.333-.565zm-10.647 12.849 1.122-8.973 6.278 3.7zm22.88-32.092a4.43 4.43 0 0 0-5.27.574l-.718-.423c2.615-4.252 6.932-4.867 6.932-4.867l-6.811-4.015s1.553 4.075-.9 8.423l-.765-.45a4.433 4.433 0 1 0-6.552 2.749c1.016.6 2.173.742 3.239.499l.011.58a4.432 4.432 0 0 0-2.248 8.25 4.433 4.433 0 0 0 6.12-5.981l.467-.25a4.4 4.4 0 0 0 1.992 2.549 4.433 4.433 0 1 0 4.503-7.638m3.294-86.868c-4.862-2.866-10.393-3.549-15.492-2.382l-.043-2.78c7.243-.017 14.29-3.722 18.234-10.415 5.945-10.086 2.588-23.078-7.498-29.022s-23.078-2.587-29.022 7.498c-3.965 6.729-3.772 14.737-.225 21.097l-2.239 1.192c-1.479-4.938-4.729-9.359-9.519-12.182-10.085-5.944-23.079-2.589-29.023 7.498-5.945 10.086-2.586 23.079 7.499 29.022 8.276 4.879 18.504 3.482 25.194-2.745l3.427 2.021c-12.5 20.324-33.133 23.266-33.133 23.266l32.555 19.187s-7.421-19.477 4.305-40.256l3.652 2.152c-2.207 8.868 1.526 18.493 9.803 23.371 10.083 5.943 23.078 2.588 29.022-7.498 5.945-10.088 2.587-23.081-7.497-29.024"/></svg>